<?xml version="1.0" encoding="UTF-8" standalone="no"?>
<svg width="364px" height="355px" viewBox="0 0 364 355" version="1.1" xmlns="http://www.w3.org/2000/svg" xmlns:xlink="http://www.w3.org/1999/xlink">
    <!-- Generator: Sketch 3.6.1 (26313) - http://www.bohemiancoding.com/sketch -->
    <title>rojak-black</title>
    <desc>Created with Sketch.</desc>
    <defs></defs>
    <g id="Page-1" stroke="none" stroke-width="1" fill="none" fill-rule="evenodd">
        <g id="Rojak---Logo-Copy" transform="translate(-138.000000, -140.000000)" fill="#000000">
            <g id="rojak-black" transform="translate(138.000000, 140.000000)">
                <g id="binoculars" transform="translate(0.000000, 71.000000)">
                    <g id="Group">
                        <path d="M82.083,45.045 C53.44,45.045 30.139,68.347 30.139,96.989 C30.139,125.632 53.441,148.934 82.083,148.934 C110.726,148.934 134.028,125.632 134.028,96.989 C134.028,68.347 110.726,45.045 82.083,45.045 L82.083,45.045 Z M82.083,133.934 C61.712,133.934 45.139,117.361 45.139,96.989 C45.139,76.618 61.712,60.045 82.083,60.045 C102.455,60.045 119.028,76.618 119.028,96.989 C119.028,117.361 102.455,133.934 82.083,133.934 L82.083,133.934 Z" id="Shape"></path>
                        <path d="M281.59,14.91 C268.193,14.91 255.117,18.16 243.379,24.341 C214.946,-7.325 148.712,-7.306 120.293,24.34 C108.563,18.16 95.487,14.91 82.08,14.91 C36.821,14.91 0,51.731 0,96.99 C0,142.249 36.821,179.07 82.08,179.07 C113.364,179.07 140.609,161.476 154.459,135.67 L209.219,135.67 C223.068,161.477 250.309,179.07 281.589,179.07 C326.848,179.07 363.669,142.249 363.669,96.99 C363.67,51.731 326.849,14.91 281.59,14.91 L281.59,14.91 Z M82.08,164.07 C45.092,164.07 15,133.978 15,96.99 C15,60.002 45.092,29.91 82.08,29.91 C119.312,29.91 149.167,60.157 149.167,96.99 C149.167,133.71 119.284,164.07 82.08,164.07 L82.08,164.07 Z M202.982,120.669 L160.689,120.669 C165.344,105.274 165.276,88.52 160.689,73.31 L202.982,73.31 C198.311,88.772 198.425,105.598 202.982,120.669 L202.982,120.669 Z M209.183,58.31 L154.495,58.31 C149.246,48.481 141.82,39.588 133.072,32.658 C156.076,9.946 207.581,9.93 230.599,32.658 C221.683,39.709 214.317,48.687 209.183,58.31 L209.183,58.31 Z M281.59,164.07 C244.289,164.07 214.51,133.613 214.51,96.99 C214.51,96.903 214.513,96.81 214.513,96.723 C214.658,59.868 244.533,29.911 281.59,29.911 C318.578,29.911 348.67,60.003 348.67,96.991 C348.67,133.978 318.578,164.07 281.59,164.07 L281.59,164.07 Z" id="Shape"></path>
                        <path d="M281.59,45.045 C252.947,45.045 229.646,68.347 229.646,96.989 C229.646,125.632 252.948,148.934 281.59,148.934 C310.232,148.934 333.534,125.632 333.534,96.989 C333.534,68.347 310.233,45.045 281.59,45.045 L281.59,45.045 Z M281.59,133.934 C261.219,133.934 244.646,117.361 244.646,96.989 C244.646,76.618 261.219,60.045 281.59,60.045 C301.961,60.045 318.534,76.618 318.534,96.989 C318.534,117.361 301.961,133.934 281.59,133.934 L281.59,133.934 Z" id="Shape"></path>
                    </g>
                </g>
                <g id="Group-2" transform="translate(122.000000, 0.000000)">
                    <path d="M59.9992941,48.6967059 C64.8677647,48.6967059 68.8143529,44.7494118 68.8143529,39.8816471 L68.8143529,9.02964706 C68.8143529,4.16188235 64.8677647,0.214588235 59.9992941,0.214588235 C55.1308235,0.214588235 51.1842353,4.16188235 51.1842353,9.02964706 L51.1842353,39.8823529 C51.1849412,44.7508235 55.1308235,48.6967059 59.9992941,48.6967059 L59.9992941,48.6967059 Z" id="Shape"></path>
                    <path d="M90.852,45.4496471 C92.2404706,46.2508235 93.7552941,46.6327059 95.2517647,46.6327059 C98.2983529,46.6327059 101.260941,45.0515294 102.893647,42.2237647 L118.32,15.5047059 C120.754588,11.2884706 119.309647,5.89835294 115.093412,3.46376471 C110.877882,1.03058824 105.486353,2.47411765 103.052471,6.69035294 L87.6261176,33.4094118 C85.1908235,37.6249412 86.6357647,43.0150588 90.852,45.4496471 L90.852,45.4496471 Z" id="Shape"></path>
                    <path d="M17.1063529,42.2223529 C18.7390588,45.0501176 21.7016471,46.6312941 24.7482353,46.6312941 C26.2432941,46.6312941 27.7595294,46.2494118 29.148,45.4482353 C33.3642353,43.0136471 34.8091765,37.6235294 32.3745882,33.4072941 L16.9482353,6.68823529 C14.5136471,2.472 9.12211765,1.02635294 4.90729412,3.46164706 C0.691058824,5.89623529 -0.753882353,11.2863529 1.68070588,15.5025882 L17.1063529,42.2223529 L17.1063529,42.2223529 Z" id="Shape"></path>
                </g>
                <path d="M63.6875,316 L66.8125,316 C69.8750153,316 72.1354094,315.489588 73.59375,314.46875 C75.0520906,313.447912 75.78125,311.843761 75.78125,309.65625 C75.78125,307.489573 75.0364658,305.947921 73.546875,305.03125 C72.0572842,304.114579 69.7500156,303.65625 66.625,303.65625 L63.6875,303.65625 L63.6875,316 Z M63.6875,323.875 L63.6875,341.40625 L54,341.40625 L54,295.71875 L67.3125,295.71875 C73.5208644,295.71875 78.1145684,296.848947 81.09375,299.109375 C84.0729316,301.369803 85.5625,304.80206 85.5625,309.40625 C85.5625,312.093763 84.8229241,314.484365 83.34375,316.578125 C81.8645759,318.671885 79.7708469,320.312494 77.0625,321.5 C83.9375344,331.770885 88.4166563,338.406235 90.5,341.40625 L79.75,341.40625 L68.84375,323.875 L63.6875,323.875 Z M152.71875,318.5 C152.71875,326.062538 150.843769,331.87498 147.09375,335.9375 C143.343731,340.00002 137.968785,342.03125 130.96875,342.03125 C123.968715,342.03125 118.593769,340.00002 114.84375,335.9375 C111.093731,331.87498 109.21875,326.041705 109.21875,318.4375 C109.21875,310.833295 111.09894,305.026062 114.859375,301.015625 C118.61981,297.005188 124.010382,295 131.03125,295 C138.052118,295 143.421856,297.020813 147.140625,301.0625 C150.859394,305.104187 152.71875,310.916629 152.71875,318.5 L152.71875,318.5 Z M119.375,318.5 C119.375,323.604192 120.34374,327.447904 122.28125,330.03125 C124.21876,332.614596 127.114564,333.90625 130.96875,333.90625 C138.697955,333.90625 142.5625,328.770885 142.5625,318.5 C142.5625,308.208282 138.718788,303.0625 131.03125,303.0625 C127.177064,303.0625 124.270843,304.359362 122.3125,306.953125 C120.354157,309.546888 119.375,313.395808 119.375,318.5 L119.375,318.5 Z M172.40625,354.84375 C170.218739,354.84375 168.312508,354.614586 166.6875,354.15625 L166.6875,346.09375 C168.354175,346.510419 169.874993,346.71875 171.25,346.71875 C173.375011,346.71875 174.895829,346.057298 175.8125,344.734375 C176.729171,343.411452 177.1875,341.343764 177.1875,338.53125 L177.1875,295.71875 L186.875,295.71875 L186.875,338.46875 C186.875,343.80211 185.656262,347.864569 183.21875,350.65625 C180.781238,353.447931 177.177107,354.84375 172.40625,354.84375 L172.40625,354.84375 Z M241.34375,341.40625 L238.03125,330.53125 L221.375,330.53125 L218.0625,341.40625 L207.625,341.40625 L223.75,295.53125 L235.59375,295.53125 L251.78125,341.40625 L241.34375,341.40625 Z M235.71875,322.40625 C232.656235,312.552034 230.932294,306.979173 230.546875,305.6875 C230.161456,304.395827 229.885417,303.375004 229.71875,302.625 C229.031247,305.29168 227.062516,311.885364 223.8125,322.40625 L235.71875,322.40625 Z M309.28125,341.40625 L298.28125,341.40625 L286.3125,322.15625 L282.21875,325.09375 L282.21875,341.40625 L272.53125,341.40625 L272.53125,295.71875 L282.21875,295.71875 L282.21875,316.625 L286.03125,311.25 L298.40625,295.71875 L309.15625,295.71875 L293.21875,315.9375 L309.28125,341.40625 Z" id="ROJAK"></path>
            </g>
        </g>
    </g>
</svg>